<svg width="23" height="20" viewBox="0 0 23 20" fill="none" xmlns="http://www.w3.org/2000/svg">
<g clip-path="url(#clip0_12_175)">
<path d="M7.9612 7.85715C10.1596 7.85715 11.9418 6.25817 11.9418 4.28572C11.9418 2.31328 10.1596 0.714294 7.9612 0.714294C5.76277 0.714294 3.98059 2.31328 3.98059 4.28572C3.98059 6.25817 5.76277 7.85715 7.9612 7.85715Z" stroke="#1B0404" stroke-width="2" stroke-linecap="round" stroke-linejoin="round"/>
<path d="M10.3496 17.8571H0.796143V17.0827C0.808818 15.9937 1.12888 14.9256 1.72644 13.9778C2.32401 13.03 3.17957 12.2335 4.21321 11.6628C5.24686 11.0921 6.42486 10.7658 7.63718 10.7143C8.84951 10.6628 10.0566 10.8878 11.1457 11.3683" stroke="#1B0404" stroke-width="2" stroke-linecap="round" stroke-linejoin="round"/>
<path d="M16.7186 10.7143V19.2857" stroke="#1B0404" stroke-width="2" stroke-linecap="round" stroke-linejoin="round"/>
<path d="M11.9418 15H21.4953" stroke="#1B0404" stroke-width="2" stroke-linecap="round" stroke-linejoin="round"/>
</g>
<defs>
<clipPath id="clip0_12_175">
<rect width="22.2914" height="20" fill="white"/>
</clipPath>
</defs>
</svg>
