<svg width="44" height="38" viewBox="0 0 44 38" fill="none" xmlns="http://www.w3.org/2000/svg">
<rect width="44" height="38" rx="6" fill="#22E1DE"/>
<path d="M11.0211 8C10.5517 8 10.0622 8.13618 9.7029 8.44493L7.35439 10.4747L6.83922 10.0283C6.12238 9.41076 4.91974 9.41076 4.20291 10.0283C3.48791 10.6473 3.48791 11.686 4.20291 12.3051L6.03624 13.8884C6.75307 14.5059 7.95571 14.5059 8.67255 13.8884L12.3392 10.7217C13.0542 10.1027 13.0542 9.06401 12.3392 8.44493C11.9799 8.13618 11.4904 8 11.0211 8ZM18.3544 9.58333C17.3424 9.58333 16.521 10.2927 16.521 11.1667C16.521 12.0407 17.3424 12.75 18.3544 12.75H38.521C39.533 12.75 40.3544 12.0407 40.3544 11.1667C40.3544 10.2927 39.533 9.58333 38.521 9.58333H18.3544ZM11.0211 15.9167C10.5517 15.9167 10.0622 16.0528 9.7029 16.3616L7.35439 18.3914L6.83922 17.9449C6.12238 17.3274 4.91974 17.3274 4.20291 17.9449C3.48791 18.564 3.48791 19.6026 4.20291 20.2217L6.03624 21.8051C6.75307 22.4226 7.95571 22.4226 8.67255 21.8051L12.3392 18.6384C13.0542 18.0193 13.0542 16.9807 12.3392 16.3616C11.9799 16.0528 11.4904 15.9167 11.0211 15.9167ZM18.3544 17.5C17.3424 17.5 16.521 18.2093 16.521 19.0833C16.521 19.9573 17.3424 20.6666 18.3544 20.6666H38.521C39.533 20.6666 40.3544 19.9573 40.3544 19.0833C40.3544 18.2093 39.533 17.5 38.521 17.5H18.3544ZM11.0211 23.8333C10.5517 23.8333 10.0622 23.9695 9.7029 24.2782L7.35439 26.308L6.83922 25.8616C6.12238 25.2441 4.91974 25.2441 4.20291 25.8616C3.48791 26.4807 3.48791 27.5193 4.20291 28.1384L6.03624 29.7217C6.75307 30.3392 7.95571 30.3392 8.67255 29.7217L12.3392 26.555C13.0542 25.936 13.0542 24.8973 12.3392 24.2782C11.9799 23.9695 11.4904 23.8333 11.0211 23.8333ZM18.3544 25.4166C17.3424 25.4166 16.521 26.126 16.521 27C16.521 27.874 17.3424 28.5833 18.3544 28.5833H38.521C39.533 28.5833 40.3544 27.874 40.3544 27C40.3544 26.126 39.533 25.4166 38.521 25.4166H18.3544Z" fill="white"/>
</svg>
