<svg width="19" height="19" viewBox="0 0 19 19" fill="none" xmlns="http://www.w3.org/2000/svg">
<path d="M5.03101 0C4.47901 0 4.03101 0.448 4.03101 1C1.82001 1 0 2.793 0 5V7L0.0310059 15C0.0310059 17.206 1.82201 19 4.03101 19H14.031C16.24 19 18.031 17.209 18.031 15L18 7V5C18 2.789 16.238 1 14.031 1C14.031 0.448 13.584 0 13.031 0C12.479 0 12.031 0.448 12.031 1H6.03101C6.03101 0.448 5.58401 0 5.03101 0ZM4.03101 3C4.03101 3.552 4.47901 4 5.03101 4C5.58401 4 6.03101 3.552 6.03101 3H12.031C12.031 3.552 12.479 4 13.031 4C13.584 4 14.031 3.552 14.031 3C15.128 3 16 3.888 16 5V6C14.076 6 3.924 6 2 6V5C2 3.903 2.91901 3 4.03101 3ZM2 8C3.924 8 14.076 8 16 8L16.031 15C16.031 16.101 15.136 17 14.031 17H4.03101C2.92701 17 2.03101 16.105 2.03101 15L2 8Z" fill="#2A343D"/>
</svg>
