<svg width="17" height="21" viewBox="0 0 17 21" fill="none" xmlns="http://www.w3.org/2000/svg">
<path d="M7.50607 0.131775L0.506091 4.13177C-0.165908 4.51568 -0.165908 5.49787 0.506091 5.88177C1.38109 6.38177 6.63108 9.38177 7.50607 9.88177C7.81307 10.0575 8.19807 10.0575 8.50607 9.88177L15.5061 5.88177C16.1781 5.49787 16.1781 4.51568 15.5061 4.13177L8.50607 0.131775C8.19907 -0.043925 7.81407 -0.043925 7.50607 0.131775ZM8.00607 2.16298L12.9751 5.00677L8.00607 7.85057C6.97408 7.26077 4.72009 5.96858 3.03709 5.00677L8.00607 2.16298ZM0.75609 9.03798C0.509091 9.10538 0.268091 9.26697 0.131092 9.50677C-0.142908 9.98627 0.0270919 10.6078 0.506091 10.8818L7.50607 14.8818C7.81307 15.0575 8.19807 15.0575 8.50607 14.8818L15.5061 10.8818C15.9861 10.6078 16.1551 9.98627 15.8811 9.50677C15.6071 9.02728 14.9861 8.85777 14.5061 9.13177L8.00607 12.8506L1.50609 9.13177C1.26609 8.99477 1.00309 8.97068 0.75609 9.03798ZM0.75609 14.038C0.509091 14.1054 0.268091 14.267 0.131092 14.5068C-0.142908 14.9863 0.0270919 15.6078 0.506091 15.8818L7.50607 19.8818C7.81307 20.0575 8.19807 20.0575 8.50607 19.8818L15.5061 15.8818C15.9861 15.6078 16.1551 14.9863 15.8811 14.5068C15.6071 14.0273 14.9861 13.8578 14.5061 14.1318L8.00607 17.8506L1.50609 14.1318C1.26609 13.9948 1.00309 13.9707 0.75609 14.038Z" fill="#2A343D"/>
</svg>
